<svg width="25" height="25" viewBox="0 0 25 25" fill="none" xmlns="http://www.w3.org/2000/svg">
<g clip-path="url(#clip0_117_144)">
<path d="M17.5524 0H7.44764C3.34099 0 0 3.34099 0 7.44764V17.5524C0 21.659 3.34099 25 7.44764 25H17.5524C21.659 25 25 21.659 25 17.5524V7.44764C25 3.34099 21.659 0 17.5524 0ZM22.485 17.5524C22.485 20.2766 20.2766 22.485 17.5524 22.485H7.44764C4.72344 22.485 2.515 20.2766 2.515 17.5524V7.44764C2.515 4.72339 4.72344 2.515 7.44764 2.515H17.5524C20.2766 2.515 22.485 4.72339 22.485 7.44764V17.5524Z" fill="#D9D9D9"/>
<path d="M12.5001 6.03406C8.93477 6.03406 6.03418 8.93465 6.03418 12.4999C6.03418 16.0652 8.93477 18.9658 12.5001 18.9658C16.0654 18.9658 18.966 16.0652 18.966 12.4999C18.966 8.9346 16.0654 6.03406 12.5001 6.03406ZM12.5001 16.4508C10.318 16.4508 8.54918 14.682 8.54918 12.4999C8.54918 10.3179 10.3181 8.54906 12.5001 8.54906C14.6821 8.54906 16.451 10.3179 16.451 12.4999C16.451 14.6819 14.6821 16.4508 12.5001 16.4508Z" fill="#D9D9D9"/>
<path d="M18.9783 7.63208C19.8339 7.63208 20.5276 6.93843 20.5276 6.08276C20.5276 5.2271 19.8339 4.53345 18.9783 4.53345C18.1226 4.53345 17.429 5.2271 17.429 6.08276C17.429 6.93843 18.1226 7.63208 18.9783 7.63208Z" fill="#D9D9D9"/>
</g>
<defs>
<clipPath id="clip0_117_144">
<rect width="25" height="25" fill="white"/>
</clipPath>
</defs>
</svg>
