<svg width="25" height="25" viewBox="0 0 25 25" fill="none" xmlns="http://www.w3.org/2000/svg">
<g clip-path="url(#clip0_117_149)">
<path d="M2.93305 0.267578C1.23371 0.267578 0 1.43982 0 3.05376C0 4.66715 1.20923 5.8383 2.8743 5.8383C3.73811 5.8383 4.48226 5.55816 5.02676 5.02834C5.54897 4.51974 5.83672 3.81857 5.83618 3.04125C5.7981 1.40827 4.6041 0.267578 2.93305 0.267578ZM4.26848 4.24884C3.93122 4.57685 3.44873 4.75038 2.8743 4.75038C1.82282 4.75038 1.08793 4.05302 1.08793 3.05376C1.08793 2.03818 1.82935 1.3555 2.93305 1.3555C4.01173 1.3555 4.72432 2.0273 4.7488 3.0543C4.74825 3.5232 4.57799 3.94694 4.26848 4.24884Z" fill="#D9D9D9"/>
<path d="M0.521729 24.7323H5.41087V6.75708H0.521729V24.7323ZM1.60965 7.84501H4.32294V23.6439H1.60965V7.84501Z" fill="#D9D9D9"/>
<path d="M18.3032 6.75708C16.036 6.75708 14.6478 7.53984 13.8438 8.27582L13.691 6.75708H8.15942V24.7318H13.5768V15.2848C13.5768 14.8779 13.7416 14.0331 13.8449 13.8101C14.4993 12.4007 15.3822 12.4007 16.7192 12.4007C18.2592 12.4007 19.5603 13.8449 19.5603 15.5541V24.7329H25V14.5771C25 9.20383 21.5284 6.75708 18.3032 6.75708ZM23.9121 23.6444H20.6483V15.5535C20.6483 13.2542 18.8488 11.3122 16.7192 11.3122C15.3528 11.3122 13.8047 11.3122 12.8576 13.3521C12.6623 13.7737 12.4883 14.7838 12.4883 15.2848V23.6444H9.24735V7.84501H12.707L12.9289 10.0448H13.8204L13.9798 9.7875C14.3427 9.20328 15.4899 7.84446 18.3032 7.84446C21.0046 7.84446 23.9121 9.95069 23.9121 14.5755V23.6444Z" fill="#D9D9D9"/>
</g>
<defs>
<clipPath id="clip0_117_149">
<rect width="25" height="25" fill="white"/>
</clipPath>
</defs>
</svg>
