<svg width="100" height="68" viewBox="0 0 100 68" fill="none" xmlns="http://www.w3.org/2000/svg">
<path d="M40.5148 0.445801H11.1978C8.95823 0.445801 7.14429 2.25974 7.14429 4.49931C7.14429 6.73887 8.95823 8.55281 11.1978 8.55281H40.5148C42.7544 8.55281 44.5683 6.73887 44.5683 4.49931C44.5683 2.25985 42.7543 0.445801 40.5148 0.445801Z" fill="#D9D9D9"/>
<path d="M40.5148 29.4487H20.9262C18.6866 29.4487 16.8727 31.2627 16.8727 33.5022C16.8727 35.7417 18.6866 37.5557 20.9262 37.5557H40.5148C42.7544 37.5557 44.5683 35.7418 44.5683 33.5022C44.5683 31.2627 42.7543 29.4487 40.5148 29.4487Z" fill="#D9D9D9"/>
<path d="M40.5148 14.9473H4.05351C1.81394 14.9473 0 16.7613 0 19.0008C0 21.2404 1.81394 23.0543 4.05351 23.0543H40.5148C42.7545 23.0543 44.5683 21.2404 44.5683 19.0008C44.5683 16.7613 42.7544 14.9473 40.5148 14.9473Z" fill="#D9D9D9"/>
<path d="M40.5148 43.9603H4.05351C1.81394 43.9603 0 45.774 0 48.0138C0 50.2533 1.81394 52.0673 4.05351 52.0673H40.5148C42.7545 52.0673 44.5683 50.2533 44.5683 48.0138C44.5683 45.7741 42.7544 43.9603 40.5148 43.9603Z" fill="#D9D9D9"/>
<path d="M40.5148 58.4617H4.05351C1.81394 58.4617 0 60.2756 0 62.5152C0 64.7547 1.81394 66.5687 4.05351 66.5687H40.5148C42.7545 66.5687 44.5683 64.7547 44.5683 62.5152C44.5683 60.2756 42.7544 58.4617 40.5148 58.4617Z" fill="#D9D9D9"/>
<path d="M93.9197 0H58.0057C54.6513 0 51.9254 2.72598 51.9254 6.08026V61.441C51.9254 64.7953 54.6513 67.5213 58.0057 67.5213H93.9197C97.2741 67.5213 100 64.7953 100 61.441V6.08026C100 2.71585 97.2841 0 93.9197 0Z" fill="#D9D9D9"/>
</svg>
